<?xml version="1.0" encoding="utf-8"?>
<!-- Generator: Adobe Illustrator 27.7.0, SVG Export Plug-In . SVG Version: 6.00 Build 0)  -->
<svg version="1.1" id="Layer_1" xmlns="http://www.w3.org/2000/svg" xmlns:xlink="http://www.w3.org/1999/xlink" x="0px" y="0px"
	 viewBox="0 0 390 109" style="enable-background:new 0 0 390 109;" xml:space="preserve">
<style type="text/css">
	.st0{fill:#FAF4EE;}
</style>
<g>
	<path class="st0" d="M110.8,77.9c0,1-0.4,1.9-1.1,2.6s-1.6,1.1-2.5,1.1H79.7c-1,0-1.8-0.4-2.5-1.1s-1.1-1.6-1.1-2.6V31.2
		c0-1.1,0.4-1.9,1.1-2.6s1.6-1,2.5-1h27.5c1,0,1.8,0.3,2.5,1s1.1,1.6,1.1,2.6v2.2c0,1-0.4,1.9-1.1,2.6c-0.7,0.7-1.6,1.1-2.5,1.1
		H86.6c-0.6,0-1,0.3-1,1v10.6c0,0.7,0.3,1.1,1,1.1h17.8c1.1,0,1.9,0.3,2.6,1s1,1.5,1,2.6v2.2c0,1-0.3,1.9-1,2.6
		c-0.7,0.7-1.6,1.1-2.6,1.1H86.6c-0.6,0-1,0.3-1,1v10.8c0,0.7,0.3,1,1,1h20.6c1,0,1.8,0.3,2.5,1s1.1,1.6,1.1,2.6
		C110.8,75.7,110.8,77.9,110.8,77.9z"/>
	<path class="st0" d="M159.6,77.9c0,1-0.3,1.9-1,2.6s-1.6,1.1-2.6,1.1h-2.2c-1,0-1.9-0.4-2.6-1.1c-0.7-0.7-1.1-1.6-1.1-2.6V53.8
		c0-0.2-0.1-0.3-0.3-0.4c-0.2-0.1-0.3,0-0.4,0.2l-7.7,15.8c-0.2,0.4-0.5,0.8-1,1.1c-0.5,0.3-1.3,0.7-2.2,1c-1.7,0-2.7-0.7-3.3-2.2
		l-7.7-15.8c-0.1-0.2-0.2-0.2-0.4-0.2c-0.2,0.1-0.3,0.2-0.3,0.4v24.1c0,1-0.4,1.9-1.1,2.6s-1.6,1.1-2.6,1.1h-2.2
		c-1,0-1.9-0.4-2.6-1.1s-1.1-1.6-1.1-2.6V31.2c0-1.1,0.4-1.9,1.1-2.6s1.6-1,2.6-1h2.3c1.5,0,2.6,0.7,3.3,2.1
		c0.3,0.6,0.8,1.7,1.6,3.4c0.8,1.7,1.8,3.7,2.9,6c1.1,2.3,2.3,4.7,3.5,7.2s2.4,4.9,3.5,7.2c0.1,0.2,0.3,0.3,0.4,0.3
		c0.2,0,0.3-0.1,0.4-0.3l11.4-23.8c0.7-1.4,1.8-2.1,3.4-2.1h2.2c1.1,0,1.9,0.3,2.6,1c0.7,0.7,1,1.6,1,2.6v46.7H159.6z"/>
	<path class="st0" d="M207.4,76.8c0.3,1.2,0.1,2.3-0.6,3.4c-0.7,1-1.7,1.4-3,1.4h-2.3c-0.7,0-1.5-0.2-2.1-0.7
		c-0.7-0.5-1.1-1.1-1.4-1.8l-3-9.2c-0.2-0.7-0.7-1-1.4-1H180c-0.7,0-1.1,0.3-1.4,1l-3,9.2c-0.3,0.7-0.7,1.3-1.4,1.8
		c-0.6,0.5-1.4,0.7-2.2,0.7h-2.3c-1.3,0-2.3-0.5-3-1.4c-0.7-1.1-0.9-2.2-0.5-3.4L181.8,30c0.3-0.7,0.7-1.3,1.3-1.8s1.3-0.7,2-0.7
		h3.3c0.7,0,1.4,0.2,2.1,0.7c0.6,0.5,1.1,1.1,1.3,1.8L207.4,76.8z M191.3,58.4l-4-12.2c-0.3-0.4-0.6-0.4-0.9,0l-4,12.2
		c-0.1,0.3-0.1,0.5,0.1,0.7c0.2,0.2,0.4,0.3,0.6,0.3h7.4c0.3,0,0.5-0.1,0.6-0.3C191.4,58.9,191.4,58.6,191.3,58.4z"/>
	<path class="st0" d="M243,85.4c0,1.6-0.4,3.1-1.2,4.4s-1.9,2.5-3.2,3.3s-2.8,1.2-4.5,1.2H223c-1,0-1.9-0.4-2.6-1.1
		c-0.7-0.7-1.1-1.6-1.1-2.6v-2.2c0-1,0.4-1.9,1.1-2.6c0.7-0.7,1.6-1,2.6-1h9.4c0.3,0,0.5-0.1,0.8-0.3c0.2-0.2,0.4-0.5,0.4-0.7v-1.2
		c0-0.3-0.1-0.5-0.4-0.7c-0.2-0.2-0.5-0.3-0.8-0.3H223c-2.5,0-4.6-0.9-6.3-2.6c-1.8-1.7-2.6-3.9-2.6-6.4V49.1c0-1.7,0.4-3.2,1.2-4.5
		c0.8-1.4,1.9-2.4,3.2-3.2s2.8-1.2,4.5-1.2h11.1c1.7,0,3.1,0.4,4.5,1.2c1.3,0.8,2.4,1.9,3.2,3.2s1.2,2.9,1.2,4.5L243,85.4L243,85.4z
		 M233.5,71.1V50.8c0-0.3-0.1-0.6-0.4-0.8c-0.2-0.2-0.5-0.3-0.8-0.3h-7.8c-0.3,0-0.5,0.1-0.8,0.3c-0.2,0.2-0.4,0.5-0.4,0.8v20.3
		c0,0.3,0.1,0.5,0.4,0.7c0.2,0.2,0.5,0.3,0.8,0.3h7.8c0.3,0,0.5-0.1,0.8-0.3C233.4,71.6,233.5,71.4,233.5,71.1z"/>
	<path class="st0" d="M278.4,57.8c0,1.6-0.4,3.1-1.2,4.4c-0.8,1.4-1.9,2.5-3.2,3.3c-1.3,0.8-2.8,1.2-4.5,1.2h-9.4
		c-0.3,0-0.5,0.1-0.8,0.3c-0.2,0.2-0.4,0.4-0.4,0.7v3.4c0,0.3,0.1,0.5,0.4,0.7c0.2,0.2,0.5,0.3,0.8,0.3h9.4c1,0,1.9,0.3,2.6,1
		s1.1,1.6,1.1,2.6v2.1c0,1-0.4,1.9-1.1,2.6s-1.6,1.1-2.6,1.1h-11.1c-2.5,0-4.6-0.9-6.3-2.6c-1.8-1.7-2.6-3.9-2.6-6.4V49.1
		c0-1.7,0.4-3.1,1.2-4.5c0.8-1.3,1.9-2.4,3.2-3.2s2.8-1.2,4.5-1.2h11.1c1.7,0,3.1,0.4,4.5,1.2c1.3,0.8,2.4,1.9,3.2,3.2
		c0.8,1.3,1.2,2.8,1.2,4.5V57.8z M269,56.2v-5.4c0-0.3-0.1-0.6-0.4-0.8c-0.2-0.2-0.5-0.3-0.8-0.3H260c-0.3,0-0.5,0.1-0.8,0.3
		c-0.2,0.2-0.4,0.5-0.4,0.8v5.4c0,0.2,0.1,0.4,0.4,0.6c0.2,0.2,0.5,0.3,0.8,0.3h7.8c0.3,0,0.5-0.1,0.8-0.3
		C268.8,56.6,269,56.4,269,56.2z"/>
	<path class="st0" d="M313.8,77.9c0,1-0.3,1.9-1,2.6s-1.5,1.1-2.6,1.1H308c-1,0-1.9-0.4-2.6-1.1s-1-1.6-1-2.6V50.8
		c0-0.3-0.1-0.6-0.4-0.8c-0.2-0.2-0.5-0.3-0.8-0.3h-7.8c-0.3,0-0.5,0.1-0.8,0.3c-0.2,0.2-0.4,0.5-0.4,0.8v27.1c0,1-0.3,1.9-1,2.6
		s-1.5,1.1-2.6,1.1h-2.2c-1,0-1.9-0.4-2.6-1.1s-1.1-1.6-1.1-2.6V49.1c0-1.7,0.4-3.2,1.2-4.5c0.8-1.4,1.9-2.4,3.2-3.2
		c1.3-0.8,2.8-1.2,4.5-1.2H305c1.7,0,3.1,0.4,4.5,1.2c1.3,0.8,2.4,1.9,3.2,3.2s1.2,2.9,1.2,4.5v28.8H313.8z"/>
</g>
</svg>
