<?xml version="1.0" encoding="utf-8"?>
<!-- Generator: Adobe Illustrator 27.7.0, SVG Export Plug-In . SVG Version: 6.00 Build 0)  -->
<svg version="1.1" id="Layer_1" xmlns="http://www.w3.org/2000/svg" xmlns:xlink="http://www.w3.org/1999/xlink" x="0px" y="0px"
	 viewBox="0 0 390 109" style="enable-background:new 0 0 390 109;" xml:space="preserve">
<style type="text/css">
	.st0{fill:none;}
	.st1{enable-background:new    ;}
	.st2{fill:#FAF4EE;}
</style>
<rect x="-27.5" y="-4.5" class="st0" width="390" height="109"/>
<g class="st1">
	<path class="st2" d="M32.7,21c0-0.2,0.2-0.4,0.4-0.4h30.6c0.2,0,0.4,0.2,0.4,0.4v2.1c0,0.2-0.2,0.3-0.4,0.3H40.7
		c-0.2,0-0.3,0.2-0.3,0.4v21.6c0,0.2,0.1,0.4,0.3,0.4h18.2c0.2,0,0.4,0.1,0.4,0.3v2.1c0,0.2-0.2,0.4-0.4,0.4H40.8
		c-0.2,0-0.4,0.1-0.4,0.3v23.6c0,0.2,0.2,0.4,0.4,0.4h23c0.2,0,0.4,0.1,0.4,0.3v2.1c0,0.2-0.2,0.4-0.4,0.4H33.1
		c-0.2,0-0.4-0.2-0.4-0.4V21z"/>
	<path class="st2" d="M67.4,62.6c0-11.5,0.1-32.5,0.1-41.7c0-0.2,0.1-0.3,0.3-0.3h7.1c0.1,0,0.2,0.1,0.3,0.2l20.1,45.7
		c0.1,0.2,0.6,0.2,0.6,0l20.6-45.7c0-0.2,0.1-0.2,0.3-0.2h7.2c0.2,0,0.4,0.2,0.4,0.4v54.5c0,0.2-0.2,0.4-0.4,0.4h-7
		c-0.2,0-0.3-0.2-0.3-0.4V28.9c0-0.4-0.5-0.5-0.7-0.2L95.1,75.6c-0.1,0.2-0.2,0.2-0.3,0.2h-3.4c-0.2,0-0.2-0.1-0.3-0.2L71,29.9
		c-0.2-0.4-0.7-0.2-0.7,0.1v45.5c0,0.2-0.1,0.4-0.3,0.4h-2.1c-0.2,0-0.4-0.2-0.4-0.4V62.6z"/>
	<path class="st2" d="M137.7,47.8c2.2-6.3,4.6-12.8,7-19.8l2.5-7.2c0-0.2,0.1-0.2,0.3-0.2h7c0.2,0,0.3,0.1,0.4,0.2l8.8,25.6
		c4,11.6,8.2,23.7,10.1,29c0.1,0.3-0.1,0.5-0.3,0.5h-7.4c-0.2,0-0.3-0.1-0.3-0.2c-2.5-7.1-7.3-21.3-8-23.2c-0.1-0.2-0.2-0.2-0.4-0.2
		h-18.1c-0.2,0-0.3,0.1-0.4,0.2l-8.2,23.2c0,0.2-0.1,0.2-0.3,0.2h-2.3c-0.3,0-0.4-0.2-0.3-0.5L137.7,47.8z M156.3,49.4
		c0.2,0,0.4-0.2,0.3-0.5l-7.7-22.2c-0.2-0.3-0.5-0.3-0.7,0l-7.8,22.2c-0.1,0.3,0,0.5,0.3,0.5H156.3z"/>
	<path class="st2" d="M222.3,34.4l-5.8,4h-0.3H209c-0.3,0-0.3,0.7,0,0.7c0.4,0.2,0.7,0.7,1.1,1c3.6,3.2,5.3,6.8,5.3,10.7
		c0,7.5-6.4,15.4-20,15.4c-4.1,0-7.6-0.7-10.3-2.2c-0.1,0-0.1,0-0.2,0.1s-0.2,0.2-0.2,0.3c-3.1,2.5-4.7,4.6-4.7,6.1
		c0,1.5,1.7,2.4,7.1,2.1l10-0.4c14.3-0.2,19.7,6.1,19.7,13.3c0,8.3-10,14-22.2,14c-11.5,0-19.7-3.9-19.7-10.7c0-4.4,2.8-6.8,7.8-7.4
		c0.4-0.4,0.4,0,0.4,0.3C179.7,92,188,97,198,97c8.2,0,14.7-3.9,14.7-8.6c0-4.3-3.2-6.6-6.9-8.1c-2.5-0.9-5.3-1.1-7.8-1.4h-11.1
		c-1.8,0-3.6,0-5.4-0.4c-2.5-0.4-5.6-1.4-5.6-4.3v-0.3c0-2.4,2.8-6,7-10c0.4-0.4,0.4-0.4,0-0.7c-4.7-2.8-7-7.4-7-12.2
		c0-7.5,6.7-15.4,19.6-15.4c2.8,0,5-0.1,7.1,0.8h0.4c3.7,0,13.8-1.5,19.4-2.5C222.7,33.7,222.7,34.4,222.3,34.4z M203,61.2
		c5.7-5.7,5.8-17.5-1.3-22.1c-5.5-4-11.4-2.5-15.4,3.2c-1.9,2.9-2.9,6.5-2.5,9.6c0.2,7.3,6.9,13.2,13.2,12.2
		C199.1,64,201.2,63.1,203,61.2z"/>
	<path class="st2" d="M244.3,35.2c11.2,0,19.4,8.4,19.7,20.3v0.4c0,0.2-0.2,0.4-0.4,0.4h-32.4c-0.3,0-0.4,0.2-0.3,0.4
		c1.5,9.2,10,15.6,19.2,15.6c3.4,0,7-0.8,10.3-2.9c0.2-0.1,0.3,0,0.4,0.1l0.4,0.4c0.1,0.1,0.1,0.3,0,0.6c-4.4,3.9-10,5.8-16,5.8
		c-11.4,0-21.8-7.8-21.8-20.5C223.4,42.9,233.6,35.2,244.3,35.2z M230.9,53.9h25.9c0.2,0,0.3-0.1,0.3-0.3
		c1.5-7.7-3.3-15.8-12.2-15.8c-9.3,0-14.3,7-14.3,15.7C230.6,53.7,230.7,53.9,230.9,53.9z"/>
	<path class="st2" d="M268.4,35.6h6.6c0.2,0,0.4,0.1,0.4,0.3v5c0,0.3,0.3,0.6,0.6,0.3c4.5-3.4,10.7-5.6,16.1-5.6
		c9.6,0,12.2,4.3,12.2,16.5v23.4c0,0.2-0.2,0.4-0.4,0.4h-6.8c-0.2,0-0.3-0.2-0.3-0.4V52.6c0-6.3-0.2-13.4-8.3-13.4
		c-4.2,0-9.6,2.2-13,5.8c-0.1,0.1-0.1,0.2-0.1,0.2v30.3c0,0.2-0.2,0.4-0.4,0.4h-6.7c-0.2,0-0.4-0.2-0.4-0.4
		c0-11.1,0.1-33.5,0.1-39.6C268,35.7,268.1,35.6,268.4,35.6z"/>
</g>
</svg>
